<mxfile host="app.diagrams.net" modified="2023-10-17T05:14:16.405Z" agent="Mozilla/5.0 (Windows NT 10.0; Win64; x64; rv:109.0) Gecko/20100101 Firefox/118.0" etag="OSp1YM2yyRdTp3DcicDh" version="22.0.4" type="github">
  <diagram id="R2lEEEUBdFMjLlhIrx00" name="Page-1">
    <mxGraphModel dx="880" dy="1570" grid="1" gridSize="10" guides="1" tooltips="1" connect="1" arrows="1" fold="1" page="1" pageScale="1" pageWidth="850" pageHeight="1100" math="0" shadow="0" extFonts="Permanent Marker^https://fonts.googleapis.com/css?family=Permanent+Marker">
      <root>
        <mxCell id="0" />
        <mxCell id="1" parent="0" />
        <mxCell id="Dri3-lxdObhl7Qb2wJht-2" style="edgeStyle=orthogonalEdgeStyle;rounded=0;orthogonalLoop=1;jettySize=auto;html=1;entryX=0.425;entryY=0;entryDx=0;entryDy=0;entryPerimeter=0;" edge="1" parent="1">
          <mxGeometry relative="1" as="geometry">
            <mxPoint x="410" y="90" as="sourcePoint" />
            <mxPoint x="401" y="90" as="targetPoint" />
          </mxGeometry>
        </mxCell>
        <mxCell id="Dri3-lxdObhl7Qb2wJht-44" style="edgeStyle=orthogonalEdgeStyle;rounded=0;orthogonalLoop=1;jettySize=auto;html=1;entryX=0.5;entryY=0;entryDx=0;entryDy=0;" edge="1" parent="1" source="Dri3-lxdObhl7Qb2wJht-36" target="Dri3-lxdObhl7Qb2wJht-43">
          <mxGeometry relative="1" as="geometry" />
        </mxCell>
        <mxCell id="Dri3-lxdObhl7Qb2wJht-36" value="star" style="rounded=1;whiteSpace=wrap;html=1;" vertex="1" parent="1">
          <mxGeometry x="180" y="-430" width="120" height="60" as="geometry" />
        </mxCell>
        <mxCell id="Dri3-lxdObhl7Qb2wJht-46" value="" style="edgeStyle=orthogonalEdgeStyle;rounded=0;orthogonalLoop=1;jettySize=auto;html=1;" edge="1" parent="1" source="Dri3-lxdObhl7Qb2wJht-43" target="Dri3-lxdObhl7Qb2wJht-45">
          <mxGeometry relative="1" as="geometry" />
        </mxCell>
        <mxCell id="Dri3-lxdObhl7Qb2wJht-43" value="&lt;div&gt;masukan jari-jari&lt;/div&gt;&lt;div&gt;[r]&lt;br&gt;&lt;/div&gt;" style="shape=parallelogram;perimeter=parallelogramPerimeter;whiteSpace=wrap;html=1;fixedSize=1;" vertex="1" parent="1">
          <mxGeometry x="180" y="-310" width="120" height="60" as="geometry" />
        </mxCell>
        <mxCell id="Dri3-lxdObhl7Qb2wJht-47" style="edgeStyle=orthogonalEdgeStyle;rounded=0;orthogonalLoop=1;jettySize=auto;html=1;" edge="1" parent="1" source="Dri3-lxdObhl7Qb2wJht-45" target="Dri3-lxdObhl7Qb2wJht-48">
          <mxGeometry relative="1" as="geometry">
            <mxPoint x="240" y="-40" as="targetPoint" />
          </mxGeometry>
        </mxCell>
        <mxCell id="Dri3-lxdObhl7Qb2wJht-45" value="L=22\7&#39;L&#39;l" style="whiteSpace=wrap;html=1;" vertex="1" parent="1">
          <mxGeometry x="180" y="-200" width="120" height="100" as="geometry" />
        </mxCell>
        <mxCell id="Dri3-lxdObhl7Qb2wJht-49" style="edgeStyle=orthogonalEdgeStyle;rounded=0;orthogonalLoop=1;jettySize=auto;html=1;" edge="1" parent="1" source="Dri3-lxdObhl7Qb2wJht-48" target="Dri3-lxdObhl7Qb2wJht-50">
          <mxGeometry relative="1" as="geometry">
            <mxPoint x="240" y="70" as="targetPoint" />
          </mxGeometry>
        </mxCell>
        <mxCell id="Dri3-lxdObhl7Qb2wJht-48" value="&lt;div&gt;tampilkan luas &lt;br&gt;&lt;/div&gt;&lt;div&gt;[L]&lt;br&gt;&lt;/div&gt;" style="shape=parallelogram;perimeter=parallelogramPerimeter;whiteSpace=wrap;html=1;fixedSize=1;" vertex="1" parent="1">
          <mxGeometry x="180" y="-50" width="120" height="70" as="geometry" />
        </mxCell>
        <mxCell id="Dri3-lxdObhl7Qb2wJht-50" value="selsai" style="ellipse;whiteSpace=wrap;html=1;" vertex="1" parent="1">
          <mxGeometry x="180" y="70" width="120" height="80" as="geometry" />
        </mxCell>
      </root>
    </mxGraphModel>
  </diagram>
</mxfile>
